# xmcd CD database file
#
# Track frame offsets:
#	150
#	18751
#	27901
#	40667
#	50233
#	63148
#	75378
#	87725
#	102867
#	111075
#	117977
#
# Disc length: 1823 seconds
#
# Revision: 0
# Processed by: cddbd v1.5.2PL0 Copyright (c) Steve Scherf et al.
# Submitted via: CDex 1.51
#
DISCID=83071d0b
DTITLE=The Martini Kings - Cocktail For Two
DYEAR=1900
DGENRE=Jazz
TTITLE0=Desafinado
TTITLE1=Theme from A Summer Place
TTITLE2=Swingin' Sheperd Blues
TTITLE3=Patricia
TTITLE4=You Only Live Twice
TTITLE5=Rumble
TTITLE6=Soft Sounds
TTITLE7=Theme from Endless Summer
TTITLE8=Hawaii Five-0
TTITLE9=House Of Bamboo
TTITLE10=Sleepwalk
EXTD=
EXTT0=
EXTT1=
EXTT2=
EXTT3=
EXTT4=
EXTT5=
EXTT6=
EXTT7=
EXTT8=
EXTT9=
EXTT10=
PLAYORDER=
